<svg xmlns="http://www.w3.org/2000/svg" width="800" height="500" viewBox="0 0 800 500">
  <defs>
    <linearGradient id="g" x1="0" y1="0" x2="1" y2="1">
      <stop offset="0" stop-color="#7c4dff"/>
      <stop offset="1" stop-color="#448aff"/>
    </linearGradient>
  </defs>
  <rect width="800" height="500" fill="url(#g)"/>
  <g opacity="0.55">
    <circle cx="90" cy="80" r="10" fill="#ffd54f"/>
    <circle cx="700" cy="60" r="8" fill="#ff8a80"/>
    <circle cx="180" cy="430" r="9" fill="#80ffea"/>
    <circle cx="640" cy="420" r="11" fill="#ffd54f"/>
    <rect x="300" y="50" width="14" height="14" fill="#ff8a80" transform="rotate(25 307 57)"/>
    <rect x="520" y="120" width="12" height="12" fill="#80ffea" transform="rotate(-15 526 126)"/>
    <rect x="120" y="230" width="12" height="12" fill="#ffd54f" transform="rotate(40 126 236)"/>
    <rect x="690" y="270" width="14" height="14" fill="#ff8a80" transform="rotate(10 697 277)"/>
    <rect x="420" y="440" width="12" height="12" fill="#80ffea" transform="rotate(-30 426 446)"/>
    <path d="M240 100 q10 -20 20 0" stroke="#ffd54f" stroke-width="5" fill="none" stroke-linecap="round"/>
    <path d="M600 350 q10 -20 20 0" stroke="#80ffea" stroke-width="5" fill="none" stroke-linecap="round"/>
  </g>
</svg>
